<?xml version="1.0" encoding="UTF-8"?>
<svg id="Layer_1" xmlns="http://www.w3.org/2000/svg" xmlns:xlink="http://www.w3.org/1999/xlink" version="1.1" viewBox="0 0 717.4 336.5">
  <!-- Generator: Adobe Illustrator 30.0.0, SVG Export Plug-In . SVG Version: 2.1.1 Build 123)  -->
  <defs>
    <style>
      .st0 {
        fill: none;
      }

      .st1 {
        fill: #646869;
      }

      .st2 {
        clip-path: url(#clippath-1);
      }

      .st3 {
        clip-path: url(#clippath-3);
      }

      .st4 {
        clip-path: url(#clippath-4);
      }

      .st5 {
        clip-path: url(#clippath-2);
      }

      .st6 {
        fill: #dd7843;
      }

      .st7 {
        clip-path: url(#clippath);
      }
    </style>
    <clipPath id="clippath">
      <rect class="st0" x="114.1" y="-80.2" width="489.2" height="275.2"/>
    </clipPath>
    <clipPath id="clippath-1">
      <rect class="st0" x="114.1" y="-80.2" width="489.2" height="275.2"/>
    </clipPath>
    <clipPath id="clippath-2">
      <rect class="st0" x="149.1" y="-80.2" width="419.2" height="275.2"/>
    </clipPath>
    <clipPath id="clippath-3">
      <rect class="st0" x="114.1" y="-24.1" width="206.1" height="151.6"/>
    </clipPath>
    <clipPath id="clippath-4">
      <rect class="st0" x="106" y="-24.1" width="214.2" height="151.6"/>
    </clipPath>
  </defs>
  <image width="13386" height="4330" transform="translate(-.2 102.1) scale(0)" xlink:href="teaser.png"/>
  <g class="st7">
    <g class="st2">
      <g class="st5">
        <path class="st6" d="M242.5,74.5c-4.3,3.2-6.9,4.6-9.1,4-2.6-.8-3.8-4.3,3.5-19.4,6.3-13.1,2.2-28.5-23-33.7-33.4-6.9-38.9-4.5-40.3,1.3-.6,2.7,1.2,5,4.8,5.4,15.7,2,13.4,10.8,6,25-10.3,19.6-3.1,37.5,33.6,36.4,6.7-.2,25.6-.8,33.4-14.1,2.7-4.7-4.8-7.9-8.9-4.9"/>
        <path class="st1" d="M298.6,70.4c0-9.3,6.8-16.1,16.4-16.1s16.3,6.8,16.3,16.1v1.4h-26.6c-1.1,0-1.9,1-1.6,2,1.3,5.3,5.7,8.9,11.8,8.9s8.5-2,10.5-5.5h4.5c-2.3,5.6-7.9,9.3-15,9.3s-16.4-6.8-16.4-16.1M324.9,68c1.1,0,1.9-1.1,1.6-2.1-1.7-4.9-6-7.7-11.5-7.7s-9.9,3-11.5,7.8c-.4,1,.5,2.1,1.6,2.1h19.8Z"/>
        <path class="st1" d="M460.8,70.4c0-9.3,6.8-16.1,16.4-16.1s16.3,6.8,16.3,16.1v1.4h-26.6c-1.1,0-1.9,1-1.6,2,1.3,5.3,5.7,8.9,11.8,8.9s8.5-2,10.5-5.5h4.5c-2.3,5.6-7.9,9.3-15,9.3s-16.4-6.8-16.4-16.1M487.1,68c1.1,0,1.9-1.1,1.6-2.1-1.7-4.9-6-7.7-11.5-7.7s-9.9,3-11.5,7.8c-.4,1,.5,2.1,1.6,2.1h19.8Z"/>
        <path class="st1" d="M498.8,41.8h4.1v27l16.2-13.7h5.8l-16.1,13.6c-.8.7-.8,1.8,0,2.5l16.8,14.4h-5.9l-14-12.2c-1.1-.9-2.7-.2-2.7,1.2v10.9h-4.1v-43.9Z"/>
        <path class="st6" d="M357.1,82.9v.6c0,1.1.9,2.1,2.1,2.1s2.1-.9,2.1-2.1v-.6c0-1.1-.9-2.1-2.1-2.1s-2.1.9-2.1,2.1"/>
        <path class="st1" d="M370.2,54.3c-5,0-9.1,2.3-11,6.9-2-4.5-6.1-6.9-11-6.9-7,0-12.4,4.4-12.4,13.5v17.9h4.1v-17.9c0-6.5,3.6-9.6,8.5-9.6s8.7,3.3,8.7,9.6v8.8c0,1.1.9,2.1,2.1,2.1s2.1-.9,2.1-2.1v-8.8c0-6.4,3.6-9.6,8.6-9.6s8.5,3.2,8.5,9.6v17.9h4.1v-17.9c0-9.1-5.3-13.5-12.4-13.5"/>
        <path class="st6" d="M291.2,58.9h.4c1,0,1.9-.8,1.9-1.9s-.8-1.9-1.9-1.9h-.4c-1,0-1.9.8-1.9,1.9s.8,1.9,1.9,1.9"/>
        <path class="st1" d="M291.2,73.7v.7c0,5.6-3.2,8.2-7.8,8.2s-7.8-2.7-7.8-8.2v-13.9c0-.9.7-1.6,1.6-1.6h8.1c1,0,1.9-.8,1.9-1.9s-.8-1.9-1.9-1.9h-8.1c-.9,0-1.6-.7-1.6-1.6v-9.2h-4.1v30.1c0,8,4.9,12.1,12,12.1s11.9-4,11.9-12.1v-.7h-4Z"/>
        <path class="st1" d="M531.7,49.2c1.8,0,3.2-1.4,3.2-3.2s-1.4-3.2-3.2-3.2-3.2,1.4-3.2,3.2,1.4,3.2,3.2,3.2"/>
        <path class="st1" d="M529.7,55.1v29.3c0,1.1.9,2.1,2.1,2.1s2.1-.9,2.1-2.1v-29.3h-4.1Z"/>
        <path class="st1" d="M275.1,55.1h-8.1c-1,0-1.9.8-1.9,1.9s.8,1.9,1.9,1.9h8.1"/>
        <path class="st1" d="M441.2,54.3c-9,0-15.1,5.3-15.1,15.4v9.3c0,1.4-.9,2.7-2.2,3-2,.5-3.8-1-3.8-2.9v-8c0-9.3-7.6-17.1-16.9-16.8-9.4.2-15.9,6.9-15.9,16.2s7.2,15.9,15.8,15.9,7.3-.7,9.9-2.5c.6-.4.9-1.1.9-1.9,0-1.6-1.7-2.4-3-1.5-1.9,1.3-4.4,2.1-7.1,2.1-7.3,0-12.2-5.2-12.2-12.2s4.9-12.2,12.2-12.2,12.2,5.2,12.2,12.2,0,6.8,0,8.7c0,4.9,2.7,7.1,6.6,7.3h1.1c3.6,0,6.5-2.9,6.5-6.5v-10.3c0-7.5,4.3-11.6,10.9-11.6s10.9,4,10.9,11.6v6.9c0,1.1.9,2.1,2.1,2.1s2.1-.9,2.1-2.1v-6.9c0-10.1-6.1-15.4-15.1-15.4"/>
        <path class="st6" d="M452.1,82.9v.6c0,1.1.9,2.1,2.1,2.1s2.1-.9,2.1-2.1v-.6c0-1.1-.9-2.1-2.1-2.1s-2.1.9-2.1,2.1"/>
      </g>
      <g class="st3">
        <g class="st4">
          <image width="842" height="596" transform="translate(106 -24.1) scale(.3)" xlink:href="footer-1.png"/>
        </g>
      </g>
    </g>
  </g>
</svg>